<svg xmlns="http://www.w3.org/2000/svg" width="32" height="32" viewBox="0 0 32 32"><path fill="#bfc1c6" d="M16 2C8.268 2 2 8.268 2 16c0 6.075 3.938 11.225 9.406 13.031.687.125.938-.297.938-.656 0-.328-.012-1.422-.016-2.578-3.825.828-4.634-1.844-4.634-1.844-.625-1.594-1.531-2.016-1.531-2.016-1.25-.859.094-.844.094-.844 1.375.094 2.094 1.406 2.094 1.406 1.219 2.094 3.188 1.484 3.969 1.141.125-.891.484-1.484.875-1.828-3.053-.344-6.266-1.531-6.266-6.812 0-1.5.531-2.719 1.406-3.672-.141-.344-.609-1.734.125-3.625 0 0 1.156-.375 3.781 1.406A13.18 13.18 0 0 1 16 9.844c1.172.006 2.359.156 3.469.453 2.625-1.781 3.781-1.406 3.781-1.406.734 1.891.266 3.281.125 3.625.875.953 1.406 2.172 1.406 3.672 0 5.297-3.219 6.469-6.281 6.812.5.438.938 1.297.938 2.609 0 1.891-.016 3.422-.016 3.891 0 .359.25.781.938.656C26.063 27.225 30 22.075 30 16c0-7.732-6.268-14-14-14z"/></svg>
